<?xml version="1.0" standalone="no"?><!DOCTYPE svg PUBLIC "-//W3C//DTD SVG 1.1//EN" "http://www.w3.org/Graphics/SVG/1.1/DTD/svg11.dtd"><svg t="1565935183152" class="icon" viewBox="0 0 1024 1024" version="1.1" xmlns="http://www.w3.org/2000/svg" p-id="5629" xmlns:xlink="http://www.w3.org/1999/xlink" width="200" height="200"><defs><style type="text/css"></style></defs><path d="M512 64c249.6 0 448 198.4 448 448s-198.4 448-448 448-448-198.4-448-448 198.4-448 448-448m0-64C230.4 0 0 230.4 0 512s230.4 512 512 512 512-230.4 512-512-230.4-512-512-512z" fill="#4CBD74" p-id="5630"></path><path d="M486.4 217.6l-57.6 12.8c12.8 25.6 32 57.6 38.4 83.2H204.8v57.6h256V448h-192v288H320V505.6h134.4v300.8h64V505.6h140.8v160c0 6.4 0 12.8-12.8 12.8H556.8c6.4 12.8 19.2 38.4 19.2 57.6 51.2 0 89.6 0 108.8-12.8 25.6-6.4 32-25.6 32-57.6V448H518.4V371.2h256v-57.6H537.6c-6.4-25.6-32-70.4-51.2-96z" fill="#4CBD74" p-id="5631"></path></svg>